Coordinates
version=1
nRows=16
nColumns=36
inDegrees=yes

Units are S.I. units (second, meters, Newtons, ...)
If the header above contains a line with 'inDegrees', this indicates whether rotational values are in degrees (yes) or radians (no).

endheader
time	pelvis_tilt	pelvis_list	pelvis_rotation	pelvis_tx	pelvis_ty	pelvis_tz	hip_flexion_r	hip_adduction_r	hip_rotation_r	knee_angle_r	knee_angle_r_beta	ankle_angle_r	subtalar_angle_r	mtp_angle_r	hip_flexion_l	hip_adduction_l	hip_rotation_l	knee_angle_l	knee_angle_l_beta	ankle_angle_l	subtalar_angle_l	mtp_angle_l	lumbar_extension	lumbar_bending	lumbar_rotation	arm_flex_r	arm_add_r	arm_rot_r	elbow_flex_r	pro_sup_r	arm_flex_l	arm_add_l	arm_rot_l	elbow_flex_l	pro_sup_l
     10.13000000	    -11.50646281	      2.04580802	     -5.15225968	     -0.15856722	      1.00428005	     -0.57445811	     25.85207838	     -3.07085747	     -6.41048633	     31.35880564	      0.54731441	     14.06953228	     -6.53811039	     -7.49999987	     26.54112384	     -9.81125907	    -10.66110463	     37.18472387	      0.64899586	      6.57690989	    -13.64941213	     -7.49999987	    -14.32138383	      0.36921239	      0.10533369	      8.61724108	     -7.36528522	     -6.52068728	     59.61347717	    105.26357585	      0.49261159	     -5.66778523	    -17.05732722	     63.74509746	     96.17296135
     10.14000000	    -11.32513344	      2.06639219	     -5.34655366	     -0.15627861	      1.00783230	     -0.57584785	     24.77567548	     -3.08508431	     -6.40237917	     29.79455005	      0.52001300	     13.44373707	     -6.12426863	     -7.49999987	     25.26979202	     -9.55952092	    -11.15476181	     35.46686740	      0.61901361	      6.36414477	    -13.44473776	     -7.49999987	    -13.98111970	      0.34064314	      0.12362854	      8.01785810	     -7.19004308	     -6.77291885	     58.68041263	    105.36285416	     -0.02847273	     -5.36559581	    -17.25510098	     62.57907279	     96.21190072
     10.15000000	    -11.23074522	      2.05092898	     -5.50657529	     -0.15415602	      1.01105433	     -0.57721023	     23.79671281	     -3.05776125	     -6.41516758	     28.24000424	      0.49288105	     12.82035566	     -5.66573968	     -7.49999987	     24.14117409	     -9.32162115	    -11.50736111	     33.80587821	      0.59002388	      6.14830727	    -13.21739858	     -7.49999987	    -13.53322990	      0.35213469	      0.14568752	      7.40118246	     -7.03928454	     -7.06758737	     57.81725857	    105.46651330	     -0.54333971	     -5.08557128	    -17.47780350	     61.46090243	     96.23545698
     10.16000000	    -11.32875360	      2.00753182	     -5.59799959	     -0.15233294	      1.01384440	     -0.57858394	     23.03008468	     -2.97955209	     -6.35358176	     26.69300246	      0.46588078	     12.28731471	     -5.16949964	     -7.49999987	     23.30574834	     -9.10279288	    -11.72575523	     32.22807813	      0.56248607	      5.96665865	    -12.91043879	     -7.49999987	    -12.92528921	      0.39892833	      0.10924754	      6.73551131	     -6.93623043	     -7.33415789	     57.09459299	    105.56008525	     -1.10739914	     -4.83675691	    -17.68357592	     60.51060327	     96.23523902
     10.17000000	    -11.07429669	      1.97142949	     -5.76868711	     -0.15008230	      1.01699056	     -0.57983211	     21.87430211	     -2.95154785	     -6.42233596	     25.13412688	      0.43867327	     11.63379388	     -4.79800275	     -7.49999987	     22.01302435	     -8.91857601	    -12.29192197	     30.58000838	      0.53372183	      5.70487108	    -12.55911748	     -7.49999987	    -12.66425047	      0.41803504	      0.15581006	      6.16668770	     -6.80480256	     -7.78543336	     56.10013705	    105.87669819	     -1.49862389	     -4.59365105	    -17.88039952	     59.23374658	     96.31184715
     10.18000000	    -11.05929325	      2.02527447	     -5.99168788	     -0.14797609	      1.01961569	     -0.58108169	     21.05213958	     -2.96722993	     -6.27700730	     23.68221282	      0.41333259	     11.05940300	     -4.23875474	     -7.49999987	     21.00944801	     -8.65239215	    -12.77397861	     29.00135639	      0.50616916	      5.51513007	    -12.13200954	     -7.49999987	    -12.12902630	      0.32239145	      0.23823547	      5.50861260	     -6.69395393	     -8.07209730	     55.34553967	    106.03767880	     -2.06758093	     -4.36961019	    -18.04209639	     58.30628304	     96.31022802
     10.19000000	    -10.66615257	      2.03154872	     -6.26575073	     -0.14554141	      1.02264546	     -0.58226924	     19.76408941	     -2.98007415	     -6.26663198	     22.13107891	      0.38626019	     10.39088112	     -3.74096973	     -7.49999987	     19.51790263	     -8.41131674	    -13.45050916	     27.30696621	      0.47659647	      5.22061799	    -11.65264894	     -7.49999987	    -11.98225558	      0.26414443	      0.42812281	      4.97330120	     -6.58396720	     -8.40403504	     54.32216637	    106.24937547	     -2.39361586	     -4.12703798	    -18.21869656	     57.05898085	     96.33393931
     10.20000000	    -10.58506531	      2.00586559	     -6.45398366	     -0.14337043	      1.02502011	     -0.58348518	     18.84355988	     -2.92706999	     -6.17441641	     20.66810604	      0.36072650	      9.81411737	     -3.22107450	     -7.49999987	     18.46889453	     -8.18867763	    -13.86219224	     25.75441411	      0.44949932	      4.99478634	    -11.18608687	     -7.49999987	    -11.51639471	      0.26123855	      0.56276432	      4.33832057	     -6.51984050	     -8.55995459	     53.52283791	    106.34905525	     -2.83063750	     -3.86469416	    -18.42663573	     56.05395252	     96.35496984
     10.21000000	    -10.50558266	      1.97598353	     -6.63665683	     -0.14125329	      1.02720788	     -0.58472677	     17.95998757	     -2.88226972	     -6.12838563	     19.26658304	      0.33626531	      9.25638371	     -2.73961745	     -7.49999987	     17.45020382	     -7.96555527	    -14.30448613	     24.22292972	      0.42276988	      4.78142177	    -10.75657797	     -7.49999987	    -11.08716082	      0.26627202	      0.64187338	      3.71831144	     -6.45139738	     -8.68392302	     52.73606223	    106.38140529	     -3.24990759	     -3.58933806	    -18.68952357	     55.02445430	     96.36375032
     10.22000000	    -10.28174182	      1.93319617	     -6.80991188	     -0.13909150	      1.02937585	     -0.58612286	     16.92927403	     -2.87153509	     -6.18241450	     17.88435817	      0.31214093	      8.68286511	     -2.32641454	     -7.49999987	     16.31031476	     -7.72192263	    -14.74520841	     22.76407471	      0.39730805	      4.54216344	    -10.40474549	     -7.49999987	    -10.77945356	      0.31588655	      0.67181798	      3.17296014	     -6.41647577	     -8.90075086	     51.97482113	    106.40095749	     -3.64142123	     -3.40421565	    -18.97301052	     53.93879940	     96.41427159
     10.23000000	    -10.25139413	      1.91514929	     -6.92220835	     -0.13715828	      1.03112773	     -0.58763445	     16.12892044	     -2.86144797	     -6.13969659	     16.52997727	      0.28850253	      8.17086709	     -1.82326577	     -7.49999987	     15.46078741	     -7.43749708	    -14.96012215	     21.40355968	      0.37356259	      4.33522024	    -10.05792543	     -7.49999987	    -10.29704588	      0.35963727	      0.61231798	      2.59517719	     -6.35911858	     -9.16139013	     51.37349081	    106.39597882	     -4.10311411	     -3.22452533	    -19.21519008	     53.09384766	     96.43496559
     10.24000000	     -9.97040585	      1.88334914	     -7.02525598	     -0.13509633	      1.03306772	     -0.58897977	     15.06033072	     -2.87335723	     -6.15718508	     15.20082028	      0.26530436	      7.57419513	     -1.36296721	     -7.49999987	     14.32766265	     -7.15621135	    -15.29565384	     19.98882685	      0.34887084	      4.01978094	     -9.72302895	     -7.49999987	    -10.09365927	      0.35223441	      0.63247144	      2.10058949	     -6.24231003	     -9.57203903	     50.57241760	    106.39746336	     -4.48168676	     -2.97279794	    -19.56615317	     52.12975252	     96.48441677
     10.25000000	     -9.80316512	      1.85372917	     -7.22597551	     -0.13320928	      1.03460891	     -0.59013346	     14.20430418	     -2.85250474	     -6.16552099	     14.00981363	      0.24451738	      7.12212302	     -0.97822270	     -7.49999987	     13.35740374	     -6.93017334	    -15.69973303	     18.69723307	      0.32632828	      3.78248179	     -9.45121780	     -7.49999987	     -9.75636964	      0.33771411	      0.68609166	      1.60625026	     -6.16180621	     -9.97450486	     49.85998566	    106.43806361	     -4.95159430	     -2.73821240	    -19.91674285	     51.41809714	     96.59177316
     10.26000000	     -9.62144086	      1.81150206	     -7.41806041	     -0.13136488	      1.03603640	     -0.59143258	     13.34014666	     -2.84131146	     -6.16479806	     12.83385786	      0.22399308	      6.66133898	     -0.56255111	     -7.49999987	     12.41911170	     -6.69884542	    -16.06205835	     17.48724518	      0.30521001	      3.54122280	     -9.16382218	     -7.49999987	     -9.46270812	      0.38627611	      0.74459490	      1.15541462	     -6.12110043	    -10.31711169	     49.14072378	    106.51079771	     -5.39675229	     -2.53015376	    -20.24808220	     50.72124170	     96.73890321
     10.27000000	     -9.54164294	      1.78350662	     -7.55668033	     -0.12959688	      1.03719562	     -0.59287178	     12.58137311	     -2.83912638	     -6.06480837	     11.67083279	      0.20369446	      6.23986654	     -0.06394381	     -7.49999987	     11.65874185	     -6.44951511	    -16.28327605	     16.37811833	      0.28585209	      3.31838170	     -8.85216935	     -7.49999987	     -9.08109772	      0.42073422	      0.77310586	      0.64954598	     -6.09878712	    -10.54802390	     48.49046893	    106.54440420	     -5.82978188	     -2.29959287	    -20.49045280	     50.06927163	     96.81515636
     10.28000000	     -9.32852268	      1.73926695	     -7.71944630	     -0.12778077	      1.03836465	     -0.59425963	     11.68852283	     -2.83773256	     -6.00857679	     10.52661900	      0.18372416	      5.83530873	      0.38994649	     -7.49999987	     10.77232997	     -6.21445060	    -16.57956643	     15.31497712	      0.26729678	      3.08884729	     -8.57986142	     -7.49999987	     -8.80888276	      0.44715900	      0.82700668	      0.22504828	     -6.11524897	    -10.82888202	     47.80275069	    106.56798731	     -6.20513315	     -2.12860898	    -20.78538812	     49.38393792	     96.88189509
